<?xml version="1.0" encoding="UTF-8"?><svg id="Camada_1" xmlns="http://www.w3.org/2000/svg" viewBox="0 0 613.35 688.95"><defs><style>.cls-1,.cls-2{fill:#fff;}.cls-2{fill-rule:evenodd;}</style></defs><path class="cls-1" d="m268.27,29.97c0-3.7,3-6.71,6.71-6.71h.28c3.7,0,6.71,3,6.71,6.71v154.96c0,3.7-3,6.71-6.71,6.71h-.28c-3.7,0-6.71-3-6.71-6.71V29.97Zm-38.33-23.26c0-3.7,3-6.71,6.71-6.71h79.36c3.82,0,6.87,3.19,6.7,7v.28c-.17,3.58-3.12,6.41-6.71,6.41h-79.35c-3.7,0-6.71-3-6.71-6.71v-.28Z"/><path class="cls-1" d="m2.74,254c0-3.7,3-6.71,6.71-6.71h68.42c3.82,0,6.86,3.18,6.7,6.99l-.03.68c-.16,3.6-3.14,6.44-6.74,6.42l-54.61-.36c-3.72-.02-6.75,2.98-6.75,6.7v164.49c0,3.7-3,6.71-6.71,6.71h-.28c-3.7,0-6.71-3-6.71-6.71v-178.22Zm79.69,89.24c0,3.7-3,6.71-6.71,6.71h-41.34c-3.7,0-6.71-3-6.71-6.71v-.28c0-3.7,3-6.71,6.71-6.71h41.34c3.7,0,6.71,3,6.71,6.71v.28Z"/><rect class="cls-1" x="347.97" y="583.54" width="54.75" height="13.69" rx="6.71" ry="6.71"/><path class="cls-1" d="m323.03,501.29c0-3.7,3-6.71,6.71-6.71h68.42c3.82,0,6.86,3.18,6.7,6.99l-.03.68c-.16,3.6-3.14,6.44-6.74,6.42l-54.61-.36c-3.72-.02-6.75,2.98-6.75,6.7v164.49c0,3.7-3,6.71-6.71,6.71h-.28c-3.7,0-6.71-3-6.71-6.71v-178.22Z"/><path class="cls-1" d="m206.82,0c3.7,0,6.71,3,6.71,6.71v146.6c0,22.72-18.34,41.06-41.06,41.06h-5.51c-4.23,0-7.4-3.87-6.57-8.02l.06-.28c.63-3.13,3.38-5.39,6.57-5.39h5.45c15.06,0,27.38-12.32,27.38-27.38V6.71c0-3.7,3-6.71,6.71-6.71h.28Zm-79.39,0c3.7,0,6.71,3,6.71,6.71v146.6c0,9.4,4.58,17.16,11.48,22.22,2.68,1.96,4.21,5.31,3.22,8.48l-.27.86c-1.15,3.68-5.19,5.67-8.48,3.67-11.84-7.21-19.64-20.72-19.64-35.22V6.71c0-3.7,3-6.71,6.71-6.71h.28Z"/><rect class="cls-1" x="104.03" y="247.29" width="13.69" height="191.63" rx="6.71" ry="6.71"/><path class="cls-1" d="m260.22,431.79c.08-3.64,3.06-6.56,6.7-6.56h42.42c15.06,0,27.38-12.32,27.38-27.38v-21.9c0-13.69-10.13-25.19-23.27-27.1-2.97-.42-4.79-3.47-3.77-6.28l1.18-3.25c.88-2.43,3.32-3.92,5.88-3.6,19.16,3.01,33.67,19.98,33.67,40.24v21.9c0,22.72-18.34,41.06-41.06,41.06h-42.42c-3.76,0-6.79-3.09-6.7-6.85v-.28Zm84.86-177.66c.08,3.76-2.94,6.85-6.7,6.85h-39.99c-15.06,0-27.38,12.32-27.38,27.38v16.43c0,13.69,10.13,24.91,23.27,27.1,2.58.46,4.31,2.9,3.89,5.49l-.49,2.97c-.52,3.16-3.54,5.28-6.69,4.68-19.16-3.29-33.67-19.98-33.67-40.24v-16.43c0-22.72,18.34-41.06,41.06-41.06h39.98c3.65,0,6.62,2.91,6.7,6.56v.28Z"/><path class="cls-1" d="m396.94,277.26c0-3.7,3-6.71,6.71-6.71h.28c3.7,0,6.71,3,6.71,6.71v154.96c0,3.7-3,6.71-6.71,6.71h-.28c-3.7,0-6.71-3-6.71-6.71v-154.96Zm-38.33-23.26c0-3.7,3-6.71,6.71-6.71h79.36c3.82,0,6.87,3.19,6.7,7v.28c-.17,3.58-3.12,6.41-6.71,6.41h-79.35c-3.7,0-6.71-3-6.71-6.71v-.28Z"/><path class="cls-1" d="m41.06,686.21c-22.72,0-41.06-18.34-41.06-41.06v-42.41c0-3.2,2.26-5.95,5.39-6.57l.28-.06c4.15-.83,8.02,2.34,8.02,6.57v42.47c0,15.06,12.32,27.38,27.38,27.38h39.53c3.82,0,6.87,3.19,6.7,7v.28c-.17,3.58-3.12,6.41-6.71,6.41h-39.51ZM0,535.65c0-22.72,18.34-41.06,41.06-41.06h36.79c3.82,0,6.87,3.19,6.7,7v.28c-.17,3.58-3.12,6.41-6.71,6.41h-36.78c-15.06,0-27.38,12.32-27.38,27.38v41.2c0,3.7-3,6.71-6.71,6.71h-.28c-3.7,0-6.71-3-6.71-6.71v-41.2Z"/><path class="cls-1" d="m157.12,500.14c-.63,3.13-3.38,5.39-6.57,5.39h-5.45c-15.06,0-27.38,12.32-27.38,27.38v114.98c0,15.06,12.32,27.38,27.38,27.38h10.95c15.06,0,27.38-12.32,27.38-27.38v-114.98c0-8.96-4.59-17.01-11.5-22.19-2.66-1.99-4.19-5.34-3.2-8.51l.27-.86c1.15-3.68,5.19-5.67,8.47-3.64,11.85,7.31,19.65,21.16,19.65,35.2v114.98c0,22.72-18.34,41.06-41.06,41.06h-10.95c-22.72,0-41.06-18.34-41.06-41.06v-114.98c0-22.72,18.34-41.06,41.06-41.06h5.51c4.23,0,7.4,3.87,6.57,8.02l-.06.28Z"/><path class="cls-1" d="m221.74,501.29c0-3.7,3-6.71,6.71-6.71h68.42c3.82,0,6.86,3.18,6.7,6.99l-.03.68c-.16,3.6-3.14,6.44-6.74,6.42l-54.61-.36c-3.72-.02-6.75,2.98-6.75,6.7v164.49c0,3.7-3,6.71-6.71,6.71h-.28c-3.7,0-6.71-3-6.71-6.71v-178.22Zm79.69,89.24c0,3.7-3,6.71-6.71,6.71h-41.34c-3.7,0-6.71-3-6.71-6.71v-.28c0-3.7,3-6.71,6.71-6.71h41.34c3.7,0,6.71,3,6.71,6.71v.28Z"/><rect class="cls-1" x="449.26" y="583.54" width="54.75" height="13.69" rx="6.71" ry="6.71"/><path class="cls-1" d="m424.31,501.29c0-3.7,3-6.71,6.71-6.71h68.41c3.82,0,6.87,3.19,6.7,7v.28c-.17,3.58-3.12,6.41-6.71,6.41h-54.71c-3.7,0-6.71,3-6.71,6.71v150.84c0,3.7,3,6.71,6.71,6.71h57.91c3.65,0,6.62,2.91,6.7,6.56v.28c.09,3.76-2.94,6.85-6.7,6.85h-71.61c-3.7,0-6.71-3-6.71-6.71v-178.22Z"/><rect class="cls-1" x="553.29" y="583.54" width="54.75" height="13.69" rx="6.71" ry="6.71"/><path class="cls-1" d="m528.34,501.29c0-3.7,3-6.71,6.71-6.71h68.41c3.82,0,6.87,3.19,6.7,7v.28c-.17,3.58-3.12,6.41-6.71,6.41h-54.71c-3.7,0-6.71,3-6.71,6.71v150.84c0,3.7,3,6.71,6.71,6.71h57.91c3.65,0,6.62,2.91,6.7,6.56v.28c.09,3.76-2.94,6.85-6.7,6.85h-71.61c-3.7,0-6.71-3-6.71-6.71v-178.22Z"/><path class="cls-1" d="m144.08,253.96c0-3.7,3-6.71,6.71-6.71h45.31c22.72,0,41.06,18.34,41.06,41.06v24.64c0,10.86-4.14,20.5-10.82,27.76-3.22,3.5-3.22,9.43-.02,12.94,6.69,7.33,10.84,17.07,10.84,27.74v50.78c0,3.7-3,6.71-6.71,6.71h-.28c-3.7,0-6.71-3-6.71-6.71v-50.78c0-14.51-11.77-27.38-26.28-27.38h-18.87c-3.65,0-6.62-2.91-6.7-6.56v-.28c-.09-3.76,2.94-6.85,6.7-6.85h18.88c14.51,0,26.28-12.59,26.28-27.38v-24.64c0-15.06-12.32-27.38-27.38-27.38h-31.62c-3.7,0-6.71,3-6.71,6.71v164.53c0,3.7-3,6.71-6.71,6.71h-.28c-3.7,0-6.71-3-6.71-6.71v-178.22Z"/><path class="cls-2" d="m9.44,0C5.74,0,2.74,3,2.74,6.71v71.44c0,3.7,3,6.71,6.71,6.71h56.2c16.66,0,30.17-13.51,30.17-30.17v-24.51c0-16.66-13.51-30.17-30.17-30.17H9.44Zm6.71,13.41v58.03h49.49c9.26,0,16.76-7.5,16.76-16.76v-24.51c0-9.26-7.5-16.76-16.76-16.76H16.15Z"/><path class="cls-2" d="m9.44,97.18c-3.7,0-6.71,3-6.71,6.71v81.03c0,3.7,3,6.71,6.71,6.71h57.87c15.74,0,28.5-12.76,28.5-28.5v-37.45c0-15.74-12.76-28.5-28.5-28.5H9.44Zm6.71,13.41v67.62h51.17c8.33,0,15.09-6.75,15.09-15.09v-37.45c0-8.33-6.75-15.09-15.09-15.09H16.15Z"/></svg>