<?xml version="1.0" encoding="UTF-8"?><svg id="Camada_1" xmlns="http://www.w3.org/2000/svg" viewBox="0 0 661 661"><defs><style>.cls-1{fill:#fff;}.cls-2{fill:#ff005c;}</style></defs><rect class="cls-2" width="661" height="661" rx="39.46" ry="39.46"/><rect class="cls-1" x="382.48" y="305.04" width="25.6" height="25.6" transform="translate(790.56 635.68) rotate(180)"/><rect class="cls-1" x="408.26" y="330.76" width="25.6" height="25.6" transform="translate(842.11 687.13) rotate(180)"/><rect class="cls-1" x="382.48" y="356.26" width="25.6" height="25.6" transform="translate(790.56 738.11) rotate(180)"/><rect class="cls-1" x="356.96" y="330.76" width="25.6" height="25.6" transform="translate(739.53 687.13) rotate(180)"/><rect class="cls-1" x="252.66" y="305.04" width="25.6" height="25.6" transform="translate(530.92 635.68) rotate(180)"/><rect class="cls-1" x="278.44" y="330.76" width="25.6" height="25.6" transform="translate(582.47 687.13) rotate(180)"/><rect class="cls-1" x="252.66" y="356.26" width="25.6" height="25.6" transform="translate(530.92 738.11) rotate(180)"/><rect class="cls-1" x="227.15" y="330.76" width="25.6" height="25.6" transform="translate(479.89 687.13) rotate(180)"/><rect class="cls-1" x="202.6" y="471.16" width="25.6" height="25.6" transform="translate(430.8 967.92) rotate(180)"/><rect class="cls-1" x="432.85" y="471.16" width="25.6" height="25.6" transform="translate(891.3 967.92) rotate(180)"/><rect class="cls-1" x="202.6" y="240.92" width="25.6" height="25.6" transform="translate(430.8 507.45) rotate(180)"/><rect class="cls-1" x="432.85" y="240.92" width="25.6" height="25.6" transform="translate(891.3 507.45) rotate(180)"/><rect class="cls-1" x="177" y="445.53" width="25.6" height="25.6" transform="translate(379.6 916.65) rotate(180)"/><rect class="cls-1" x="177" y="419.93" width="25.6" height="25.6" transform="translate(379.6 865.46) rotate(180)"/><rect class="cls-1" x="177" y="394.36" width="25.6" height="25.6" transform="translate(379.6 814.33) rotate(180)"/><rect class="cls-1" x="151.4" y="394.4" width="25.6" height="25.6" transform="translate(328.41 814.4) rotate(180)"/><rect class="cls-1" x="125.82" y="394.4" width="25.6" height="25.6" transform="translate(277.24 814.4) rotate(180)"/><rect class="cls-1" x="177" y="368.77" width="25.6" height="25.6" transform="translate(379.6 763.13) rotate(180)"/><rect class="cls-1" x="177" y="343.2" width="25.6" height="25.6" transform="translate(379.6 712) rotate(180)"/><rect class="cls-1" x="177" y="317.6" width="25.6" height="25.6" transform="translate(379.6 660.8) rotate(180)"/><rect class="cls-1" x="100.26" y="368.77" width="25.6" height="25.6" transform="translate(226.11 763.13) rotate(180)"/><rect class="cls-1" x="100.26" y="343.2" width="25.6" height="25.6" transform="translate(226.11 712) rotate(180)"/><rect class="cls-1" x="100.26" y="317.6" width="25.6" height="25.6" transform="translate(226.11 660.8) rotate(180)"/><rect class="cls-1" x="177" y="292.04" width="25.6" height="25.6" transform="translate(379.6 609.67) rotate(180)"/><rect class="cls-1" x="151.42" y="292.01" width="25.6" height="103.43" transform="translate(328.43 687.45) rotate(180)"/><rect class="cls-1" x="125.82" y="292.01" width="25.6" height="103.43" transform="translate(277.24 687.45) rotate(180)"/><rect class="cls-1" x="125.81" y="266.41" width="25.6" height="25.6" transform="translate(277.21 558.42) rotate(180)"/><rect class="cls-1" x="125.81" y="240.83" width="25.6" height="25.6" transform="translate(277.21 507.26) rotate(180)"/><rect class="cls-1" x="125.81" y="215.25" width="25.6" height="25.6" transform="translate(277.21 456.1) rotate(180)"/><rect class="cls-1" x="151.39" y="189.7" width="25.6" height="25.6" transform="translate(328.37 404.99) rotate(180)"/><rect class="cls-1" x="176.98" y="164.1" width="25.6" height="25.6" transform="translate(379.55 353.8) rotate(180)"/><rect class="cls-1" x="202.59" y="138.69" width="25.6" height="25.6" transform="translate(430.78 302.99) rotate(180)"/><rect class="cls-1" x="228.17" y="138.69" width="25.6" height="25.6" transform="translate(481.94 302.99) rotate(180)"/><rect class="cls-1" x="253.75" y="138.69" width="25.6" height="25.6" transform="translate(533.11 302.99) rotate(180)"/><rect class="cls-1" x="279.34" y="138.69" width="25.6" height="25.6" transform="translate(584.27 302.99) rotate(180)"/><rect class="cls-1" x="304.92" y="138.69" width="25.6" height="25.6" transform="translate(635.43 302.98) rotate(180)"/><rect class="cls-1" x="330.5" y="138.69" width="25.6" height="25.6" transform="translate(686.6 302.98) rotate(180)"/><rect class="cls-1" x="356.08" y="138.69" width="25.6" height="25.6" transform="translate(737.76 302.98) rotate(180)"/><rect class="cls-1" x="381.66" y="138.69" width="25.6" height="25.6" transform="translate(788.92 302.98) rotate(180)"/><rect class="cls-1" x="407.24" y="138.69" width="25.6" height="25.6" transform="translate(840.09 302.98) rotate(180)"/><rect class="cls-1" x="432.83" y="138.69" width="25.6" height="25.6" transform="translate(891.25 302.98) rotate(180)"/><rect class="cls-1" x="509.53" y="266.41" width="25.6" height="25.6" transform="translate(1044.66 558.42) rotate(180)"/><rect class="cls-1" x="509.53" y="240.83" width="25.6" height="25.6" transform="translate(1044.66 507.26) rotate(180)"/><rect class="cls-1" x="509.53" y="215.25" width="25.6" height="25.6" transform="translate(1044.66 456.1) rotate(180)"/><rect class="cls-1" x="483.99" y="189.7" width="25.6" height="25.6" transform="translate(993.58 404.99) rotate(180)"/><rect class="cls-1" x="458.41" y="164.1" width="25.6" height="25.6" transform="translate(942.42 353.8) rotate(180)"/><rect class="cls-1" x="484" y="292.01" width="25.6" height="103.43"/><rect class="cls-1" x="509.58" y="292.01" width="25.6" height="103.43"/><rect class="cls-1" x="535.15" y="317.65" width="25.6" height="25.6"/><rect class="cls-1" x="535.15" y="343.21" width="25.6" height="25.6"/><rect class="cls-1" x="535.15" y="368.81" width="25.6" height="25.6"/><rect class="cls-1" x="483.98" y="394.4" width="25.6" height="25.6"/><rect class="cls-1" x="509.58" y="394.4" width="25.6" height="25.6"/><rect class="cls-1" x="177" y="266.44" width="25.6" height="25.6" transform="translate(379.6 558.48) rotate(180)"/><rect class="cls-1" x="458.4" y="445.53" width="25.6" height="25.6" transform="translate(942.4 916.65) rotate(180)"/><rect class="cls-1" x="458.4" y="419.93" width="25.6" height="25.6" transform="translate(942.4 865.46) rotate(180)"/><rect class="cls-1" x="458.4" y="394.36" width="25.6" height="25.6" transform="translate(942.4 814.33) rotate(180)"/><rect class="cls-1" x="458.4" y="368.77" width="25.6" height="25.6" transform="translate(942.4 763.13) rotate(180)"/><rect class="cls-1" x="458.4" y="343.2" width="25.6" height="25.6" transform="translate(942.4 712) rotate(180)"/><rect class="cls-1" x="458.4" y="317.6" width="25.6" height="25.6" transform="translate(942.4 660.8) rotate(180)"/><rect class="cls-1" x="458.4" y="292.04" width="25.6" height="25.6" transform="translate(942.4 609.67) rotate(180)"/><rect class="cls-1" x="458.4" y="266.44" width="25.6" height="25.6" transform="translate(942.4 558.48) rotate(180)"/><rect class="cls-1" x="228.26" y="496.71" width="25.6" height="25.6" transform="translate(482.12 1019.02) rotate(180)"/><rect class="cls-1" x="253.86" y="496.71" width="25.6" height="25.6" transform="translate(533.31 1019.02) rotate(180)"/><rect class="cls-1" x="279.36" y="496.71" width="25.6" height="25.6" transform="translate(584.32 1019.02) rotate(180)"/><rect class="cls-1" x="304.96" y="496.71" width="25.6" height="25.6" transform="translate(635.51 1019.02) rotate(180)"/><rect class="cls-1" x="330.55" y="496.71" width="25.6" height="25.6" transform="translate(686.71 1019.02) rotate(180)"/><rect class="cls-1" x="356.15" y="496.71" width="25.6" height="25.6" transform="translate(737.9 1019.02) rotate(180)"/><rect class="cls-1" x="381.75" y="496.71" width="25.6" height="25.6" transform="translate(789.1 1019.02) rotate(180)"/><rect class="cls-1" x="407.35" y="496.71" width="25.6" height="25.6" transform="translate(840.29 1019.02) rotate(180)"/><rect class="cls-1" x="228.26" y="215.5" width="25.6" height="25.6" transform="translate(482.12 456.6) rotate(180)"/><rect class="cls-1" x="253.86" y="215.5" width="25.6" height="25.6" transform="translate(533.31 456.6) rotate(180)"/><rect class="cls-1" x="279.36" y="215.5" width="25.6" height="25.6" transform="translate(584.32 456.6) rotate(180)"/><rect class="cls-1" x="304.96" y="215.5" width="25.6" height="25.6" transform="translate(635.51 456.6) rotate(180)"/><rect class="cls-1" x="330.55" y="215.5" width="25.6" height="25.6" transform="translate(686.71 456.6) rotate(180)"/><rect class="cls-1" x="356.15" y="215.5" width="25.6" height="25.6" transform="translate(737.9 456.6) rotate(180)"/><rect class="cls-1" x="381.75" y="215.5" width="25.6" height="25.6" transform="translate(789.1 456.6) rotate(180)"/><rect class="cls-1" x="407.35" y="215.5" width="25.6" height="25.6" transform="translate(840.29 456.6) rotate(180)"/></svg>